<svg width="228" height="48" viewBox="0 0 228 48" fill="none" xmlns="http://www.w3.org/2000/svg">
  <path d="M112.188 27.8047C112.188 27.3359 112.109 26.918 111.953 26.5508C111.797 26.1836 111.539 25.8555 111.18 25.5664C110.828 25.2695 110.352 24.9961 109.75 24.7461C109.156 24.4883 108.414 24.2344 107.523 23.9844C106.672 23.7422 105.902 23.4766 105.215 23.1875C104.527 22.8984 103.938 22.5664 103.445 22.1914C102.961 21.8164 102.59 21.3789 102.332 20.8789C102.074 20.3711 101.945 19.7812 101.945 19.1094C101.945 18.4531 102.086 17.8555 102.367 17.3164C102.648 16.7773 103.043 16.3125 103.551 15.9219C104.066 15.5312 104.672 15.2305 105.367 15.0195C106.07 14.8086 106.84 14.7031 107.676 14.7031C108.871 14.7031 109.902 14.9297 110.77 15.3828C111.645 15.8359 112.32 16.4492 112.797 17.2227C113.281 17.9883 113.523 18.8477 113.523 19.8008H112.082C112.082 19.0586 111.906 18.3984 111.555 17.8203C111.211 17.2344 110.711 16.7773 110.055 16.4492C109.406 16.1133 108.613 15.9453 107.676 15.9453C106.738 15.9453 105.949 16.0898 105.309 16.3789C104.676 16.6602 104.195 17.0391 103.867 17.5156C103.547 17.9844 103.387 18.5078 103.387 19.0859C103.387 19.4922 103.465 19.8672 103.621 20.2109C103.777 20.5469 104.031 20.8633 104.383 21.1602C104.742 21.4492 105.215 21.7227 105.801 21.9805C106.387 22.2305 107.109 22.4688 107.969 22.6953C108.875 22.9453 109.68 23.2227 110.383 23.5273C111.086 23.832 111.68 24.1836 112.164 24.582C112.648 24.9727 113.016 25.4297 113.266 25.9531C113.516 26.4766 113.641 27.0859 113.641 27.7812C113.641 28.4766 113.492 29.1016 113.195 29.6562C112.906 30.2031 112.496 30.668 111.965 31.0508C111.441 31.4336 110.82 31.7266 110.102 31.9297C109.391 32.1328 108.613 32.2344 107.77 32.2344C107.012 32.2344 106.258 32.1367 105.508 31.9414C104.758 31.7461 104.07 31.4453 103.445 31.0391C102.828 30.625 102.332 30.0938 101.957 29.4453C101.59 28.7969 101.406 28.0234 101.406 27.125H102.836C102.836 27.8438 102.98 28.4492 103.27 28.9414C103.559 29.4336 103.941 29.832 104.418 30.1367C104.902 30.4414 105.434 30.6641 106.012 30.8047C106.598 30.9375 107.184 31.0039 107.77 31.0039C108.668 31.0039 109.445 30.8711 110.102 30.6055C110.766 30.3398 111.277 29.9688 111.637 29.4922C112.004 29.0078 112.188 28.4453 112.188 27.8047ZM121.328 32.2344C120.5 32.2344 119.738 32.082 119.043 31.7773C118.355 31.4727 117.754 31.043 117.238 30.4883C116.73 29.9336 116.336 29.2773 116.055 28.5195C115.781 27.7539 115.645 26.918 115.645 26.0117V25.5078C115.645 24.5312 115.789 23.6484 116.078 22.8594C116.367 22.0703 116.766 21.3945 117.273 20.832C117.781 20.2695 118.359 19.8398 119.008 19.543C119.664 19.2383 120.352 19.0859 121.07 19.0859C121.875 19.0859 122.59 19.2305 123.215 19.5195C123.84 19.8008 124.363 20.2031 124.785 20.7266C125.215 21.2422 125.539 21.8555 125.758 22.5664C125.977 23.2695 126.086 24.0469 126.086 24.8984V25.7539H116.488V24.5586H124.691V24.3945C124.676 23.6836 124.531 23.0195 124.258 22.4023C123.992 21.7773 123.594 21.2695 123.062 20.8789C122.531 20.4883 121.867 20.293 121.07 20.293C120.477 20.293 119.93 20.418 119.43 20.668C118.938 20.918 118.512 21.2773 118.152 21.7461C117.801 22.207 117.527 22.7578 117.332 23.3984C117.145 24.0312 117.051 24.7344 117.051 25.5078V26.0117C117.051 26.7148 117.152 27.3711 117.355 27.9805C117.566 28.582 117.863 29.1133 118.246 29.5742C118.637 30.0352 119.098 30.3945 119.629 30.6523C120.16 30.9102 120.746 31.0391 121.387 31.0391C122.137 31.0391 122.801 30.9023 123.379 30.6289C123.957 30.3477 124.477 29.9062 124.938 29.3047L125.816 29.9844C125.543 30.3906 125.199 30.7656 124.785 31.1094C124.379 31.4531 123.891 31.7266 123.32 31.9297C122.75 32.1328 122.086 32.2344 121.328 32.2344ZM130.41 14V32H129.016V14H130.41ZM139.141 32.2344C138.312 32.2344 137.551 32.082 136.855 31.7773C136.168 31.4727 135.566 31.043 135.051 30.4883C134.543 29.9336 134.148 29.2773 133.867 28.5195C133.594 27.7539 133.457 26.918 133.457 26.0117V25.5078C133.457 24.5312 133.602 23.6484 133.891 22.8594C134.18 22.0703 134.578 21.3945 135.086 20.832C135.594 20.2695 136.172 19.8398 136.82 19.543C137.477 19.2383 138.164 19.0859 138.883 19.0859C139.688 19.0859 140.402 19.2305 141.027 19.5195C141.652 19.8008 142.176 20.2031 142.598 20.7266C143.027 21.2422 143.352 21.8555 143.57 22.5664C143.789 23.2695 143.898 24.0469 143.898 24.8984V25.7539H134.301V24.5586H142.504V24.3945C142.488 23.6836 142.344 23.0195 142.07 22.4023C141.805 21.7773 141.406 21.2695 140.875 20.8789C140.344 20.4883 139.68 20.293 138.883 20.293C138.289 20.293 137.742 20.418 137.242 20.668C136.75 20.918 136.324 21.2773 135.965 21.7461C135.613 22.207 135.34 22.7578 135.145 23.3984C134.957 24.0312 134.863 24.7344 134.863 25.5078V26.0117C134.863 26.7148 134.965 27.3711 135.168 27.9805C135.379 28.582 135.676 29.1133 136.059 29.5742C136.449 30.0352 136.91 30.3945 137.441 30.6523C137.973 30.9102 138.559 31.0391 139.199 31.0391C139.949 31.0391 140.613 30.9023 141.191 30.6289C141.77 30.3477 142.289 29.9062 142.75 29.3047L143.629 29.9844C143.355 30.3906 143.012 30.7656 142.598 31.1094C142.191 31.4531 141.703 31.7266 141.133 31.9297C140.562 32.1328 139.898 32.2344 139.141 32.2344ZM151.34 31.0273C151.934 31.0273 152.488 30.918 153.004 30.6992C153.527 30.4727 153.957 30.1406 154.293 29.7031C154.637 29.2578 154.832 28.7148 154.879 28.0742H156.215C156.176 28.8789 155.93 29.5977 155.477 30.2305C155.031 30.8555 154.445 31.3477 153.719 31.707C153 32.0586 152.207 32.2344 151.34 32.2344C150.457 32.2344 149.676 32.0742 148.996 31.7539C148.324 31.4336 147.762 30.9883 147.309 30.418C146.855 29.8398 146.512 29.168 146.277 28.4023C146.051 27.6289 145.938 26.7969 145.938 25.9062V25.4141C145.938 24.5234 146.051 23.6953 146.277 22.9297C146.512 22.1562 146.855 21.4844 147.309 20.9141C147.762 20.3359 148.324 19.8867 148.996 19.5664C149.668 19.2461 150.445 19.0859 151.328 19.0859C152.234 19.0859 153.047 19.2695 153.766 19.6367C154.492 20.0039 155.07 20.5234 155.5 21.1953C155.938 21.8672 156.176 22.6641 156.215 23.5859H154.879C154.84 22.9062 154.66 22.3203 154.34 21.8281C154.02 21.3359 153.598 20.957 153.074 20.6914C152.551 20.4258 151.969 20.293 151.328 20.293C150.609 20.293 149.996 20.4336 149.488 20.7148C148.98 20.9883 148.566 21.3672 148.246 21.8516C147.934 22.3281 147.703 22.875 147.555 23.4922C147.406 24.1016 147.332 24.7422 147.332 25.4141V25.9062C147.332 26.5859 147.402 27.2344 147.543 27.8516C147.691 28.4609 147.922 29.0039 148.234 29.4805C148.555 29.957 148.969 30.3359 149.477 30.6172C149.992 30.8906 150.613 31.0273 151.34 31.0273ZM163.832 19.3203V20.4688H157.48V19.3203H163.832ZM159.812 16.0625H161.207V28.918C161.207 29.5039 161.285 29.9453 161.441 30.2422C161.598 30.5391 161.801 30.7383 162.051 30.8398C162.301 30.9414 162.57 30.9922 162.859 30.9922C163.07 30.9922 163.273 30.9805 163.469 30.957C163.664 30.9258 163.84 30.8945 163.996 30.8633L164.055 32.0469C163.883 32.1016 163.66 32.1445 163.387 32.1758C163.113 32.2148 162.84 32.2344 162.566 32.2344C162.027 32.2344 161.551 32.1367 161.137 31.9414C160.723 31.7383 160.398 31.3945 160.164 30.9102C159.93 30.418 159.812 29.75 159.812 28.9062V16.0625ZM180.344 29.7266V23.1875C180.344 22.5859 180.219 22.0664 179.969 21.6289C179.719 21.1914 179.352 20.8555 178.867 20.6211C178.383 20.3867 177.785 20.2695 177.074 20.2695C176.418 20.2695 175.832 20.3867 175.316 20.6211C174.809 20.8477 174.406 21.1562 174.109 21.5469C173.82 21.9297 173.676 22.3555 173.676 22.8242L172.27 22.8125C172.27 22.3359 172.387 21.875 172.621 21.4297C172.855 20.9844 173.188 20.5859 173.617 20.2344C174.047 19.8828 174.559 19.6055 175.152 19.4023C175.754 19.1914 176.414 19.0859 177.133 19.0859C178.039 19.0859 178.836 19.2383 179.523 19.543C180.219 19.8477 180.762 20.3047 181.152 20.9141C181.543 21.5234 181.738 22.2891 181.738 23.2109V29.3398C181.738 29.7773 181.77 30.2305 181.832 30.6992C181.902 31.168 182 31.5547 182.125 31.8594V32H180.637C180.543 31.7188 180.469 31.3672 180.414 30.9453C180.367 30.5156 180.344 30.1094 180.344 29.7266ZM180.672 24.6172L180.695 25.6953H177.941C177.223 25.6953 176.578 25.7617 176.008 25.8945C175.445 26.0195 174.969 26.207 174.578 26.457C174.188 26.6992 173.887 26.9922 173.676 27.3359C173.473 27.6797 173.371 28.0703 173.371 28.5078C173.371 28.9609 173.484 29.375 173.711 29.75C173.945 30.125 174.273 30.4258 174.695 30.6523C175.125 30.8711 175.633 30.9805 176.219 30.9805C177 30.9805 177.688 30.8359 178.281 30.5469C178.883 30.2578 179.379 29.8789 179.77 29.4102C180.16 28.9414 180.422 28.4297 180.555 27.875L181.164 28.6836C181.062 29.0742 180.875 29.4766 180.602 29.8906C180.336 30.2969 179.988 30.6797 179.559 31.0391C179.129 31.3906 178.621 31.6797 178.035 31.9062C177.457 32.125 176.801 32.2344 176.066 32.2344C175.238 32.2344 174.516 32.0781 173.898 31.7656C173.289 31.4531 172.812 31.0273 172.469 30.4883C172.133 29.9414 171.965 29.3242 171.965 28.6367C171.965 28.0117 172.098 27.4531 172.363 26.9609C172.629 26.4609 173.012 26.0391 173.512 25.6953C174.02 25.3438 174.629 25.0781 175.34 24.8984C176.059 24.7109 176.863 24.6172 177.754 24.6172H180.672ZM192.754 21.418V32H191.359V19.3203H192.719L192.754 21.418ZM197.242 19.2266L197.207 20.5156C197.051 20.4922 196.898 20.4727 196.75 20.457C196.602 20.4414 196.441 20.4336 196.27 20.4336C195.66 20.4336 195.125 20.5469 194.664 20.7734C194.211 20.9922 193.828 21.3008 193.516 21.6992C193.203 22.0898 192.965 22.5508 192.801 23.082C192.637 23.6055 192.543 24.168 192.52 24.7695L192.004 24.9688C192.004 24.1406 192.09 23.3711 192.262 22.6602C192.434 21.9492 192.695 21.3281 193.047 20.7969C193.406 20.2578 193.855 19.8398 194.395 19.543C194.941 19.2383 195.582 19.0859 196.316 19.0859C196.496 19.0859 196.672 19.1016 196.844 19.1328C197.023 19.1562 197.156 19.1875 197.242 19.2266ZM198.438 25.8594V25.4727C198.438 24.5508 198.57 23.6992 198.836 22.918C199.102 22.1367 199.48 21.4609 199.973 20.8906C200.473 20.3203 201.07 19.8789 201.766 19.5664C202.461 19.2461 203.234 19.0859 204.086 19.0859C204.945 19.0859 205.723 19.2461 206.418 19.5664C207.113 19.8789 207.711 20.3203 208.211 20.8906C208.711 21.4609 209.094 22.1367 209.359 22.918C209.625 23.6992 209.758 24.5508 209.758 25.4727V25.8594C209.758 26.7812 209.625 27.6328 209.359 28.4141C209.094 29.1875 208.711 29.8594 208.211 30.4297C207.719 31 207.125 31.4453 206.43 31.7656C205.734 32.0781 204.961 32.2344 204.109 32.2344C203.25 32.2344 202.473 32.0781 201.777 31.7656C201.082 31.4453 200.484 31 199.984 30.4297C199.484 29.8594 199.102 29.1875 198.836 28.4141C198.57 27.6328 198.438 26.7812 198.438 25.8594ZM199.832 25.4727V25.8594C199.832 26.5547 199.926 27.2148 200.113 27.8398C200.301 28.457 200.574 29.0078 200.934 29.4922C201.293 29.9688 201.738 30.3438 202.27 30.6172C202.801 30.8906 203.414 31.0273 204.109 31.0273C204.797 31.0273 205.402 30.8906 205.926 30.6172C206.457 30.3438 206.902 29.9688 207.262 29.4922C207.621 29.0078 207.891 28.457 208.07 27.8398C208.258 27.2148 208.352 26.5547 208.352 25.8594V25.4727C208.352 24.7852 208.258 24.1328 208.07 23.5156C207.891 22.8984 207.617 22.3477 207.25 21.8633C206.891 21.3789 206.445 20.9961 205.914 20.7148C205.383 20.4336 204.773 20.293 204.086 20.293C203.398 20.293 202.789 20.4336 202.258 20.7148C201.734 20.9961 201.289 21.3789 200.922 21.8633C200.562 22.3477 200.289 22.8984 200.102 23.5156C199.922 24.1328 199.832 24.7852 199.832 25.4727ZM214.223 14V32H212.828V14H214.223ZM222.953 32.2344C222.125 32.2344 221.363 32.082 220.668 31.7773C219.98 31.4727 219.379 31.043 218.863 30.4883C218.355 29.9336 217.961 29.2773 217.68 28.5195C217.406 27.7539 217.27 26.918 217.27 26.0117V25.5078C217.27 24.5312 217.414 23.6484 217.703 22.8594C217.992 22.0703 218.391 21.3945 218.898 20.832C219.406 20.2695 219.984 19.8398 220.633 19.543C221.289 19.2383 221.977 19.0859 222.695 19.0859C223.5 19.0859 224.215 19.2305 224.84 19.5195C225.465 19.8008 225.988 20.2031 226.41 20.7266C226.84 21.2422 227.164 21.8555 227.383 22.5664C227.602 23.2695 227.711 24.0469 227.711 24.8984V25.7539H218.113V24.5586H226.316V24.3945C226.301 23.6836 226.156 23.0195 225.883 22.4023C225.617 21.7773 225.219 21.2695 224.688 20.8789C224.156 20.4883 223.492 20.293 222.695 20.293C222.102 20.293 221.555 20.418 221.055 20.668C220.562 20.918 220.137 21.2773 219.777 21.7461C219.426 22.207 219.152 22.7578 218.957 23.3984C218.77 24.0312 218.676 24.7344 218.676 25.5078V26.0117C218.676 26.7148 218.777 27.3711 218.98 27.9805C219.191 28.582 219.488 29.1133 219.871 29.5742C220.262 30.0352 220.723 30.3945 221.254 30.6523C221.785 30.9102 222.371 31.0391 223.012 31.0391C223.762 31.0391 224.426 30.9023 225.004 30.6289C225.582 30.3477 226.102 29.9062 226.562 29.3047L227.441 29.9844C227.168 30.3906 226.824 30.7656 226.41 31.1094C226.004 31.4531 225.516 31.7266 224.945 31.9297C224.375 32.1328 223.711 32.2344 222.953 32.2344Z" fill="white" fill-opacity="0.5"/>
  <path d="M74 22H82M78 26V18M78 32C83.5 32 88 27.5 88 22C88 16.5 83.5 12 78 12C72.5 12 68 16.5 68 22C68 27.5 72.5 32 78 32Z" stroke="white" stroke-opacity="0.5" stroke-width="1.5" stroke-linecap="round" stroke-linejoin="round"/>
  <path d="M28 12.4V20C22.42 20.1 20.1 22.42 20 28H12.4C6.4 28 4 25.6 4 19.6V12.4C4 6.4 6.4 4 12.4 4H19.6C25.6 4 28 6.4 28 12.4Z" stroke="white" stroke-width="1.5" stroke-linecap="round" stroke-linejoin="round"/>
  <path d="M13.9199 11.7401C12.8599 11.0201 11.4599 11.0201 10.3999 11.7801M21.9199 11.7401C20.8599 11.0201 19.4599 11.0201 18.3999 11.7801M16.3199 22.8401H11.6799C11.0799 22.8401 10.5999 22.3601 10.5999 21.7601C10.5999 18.7801 13.0199 16.3601 15.9999 16.3601C17.2799 16.3601 18.4599 16.8001 19.3799 17.5401" stroke="white" stroke-width="1.5" stroke-miterlimit="10" stroke-linecap="round" stroke-linejoin="round"/>
  <path d="M44 28.4V35.6C44 41.6 41.6 44 35.6 44H28.4C22.4 44 20 41.6 20 35.6V28C20.1 22.42 22.42 20.1 28 20H35.6C41.6 20 44 22.4 44 28.4Z" stroke="white" stroke-width="1.5" stroke-linecap="round" stroke-linejoin="round"/>
  <path d="M29.9199 27.24C28.8599 27.96 27.4599 27.96 26.3999 27.2M37.9199 27.24C36.8599 27.96 35.4599 27.96 34.3999 27.2M27.6799 32.36H36.3199C36.9199 32.36 37.3999 32.8399 37.3999 33.4399C37.3999 36.4199 34.9799 38.84 31.9999 38.84C29.0199 38.84 26.5999 36.4199 26.5999 33.4399C26.5999 32.8399 27.0799 32.36 27.6799 32.36Z" stroke="white" stroke-width="1.5" stroke-miterlimit="10" stroke-linecap="round" stroke-linejoin="round"/>
</svg>
